<svg class="crump-svg" height='100px' width='100px' xmlns="http://www.w3.org/2000/svg" xmlns:xlink="http://www.w3.org/1999/xlink" xml:space="preserve" version="1.1" style="shape-rendering:geometricPrecision;text-rendering:geometricPrecision;image-rendering:optimizeQuality;" viewBox="0 0 60000 60000" x="0px" y="0px" fill-rule="evenodd" clip-rule="evenodd"><defs><style type="text/css">
   
    .fil0 {fill:#fff;fill-rule:nonzero}
    .fil0:hover {fill: #bbb}
   
  </style></defs><g><path class="fil0" d="M41995 33209l-3016 -3068c-154,-156 -152,-407 2,-562l-1 -1 2901 -2901 -11882 -11882 -11882 11882 2901 2901 -1 1c155,155 156,405 2,562l-3016 3068 11995 11995 11995 -11995zm-25610 -1621l1727 -1727 -1588 -1588 -1727 1727 1588 1588zm-215 -3668l-966 -966 -3047 3047 17844 17844 17844 -17844 -3047 -3047 -966 966 1903 1903c98,98 98,256 0,354l-15557 15557c-98,98 -256,98 -354,0l-15557 -15557c-98,-98 -98,-256 0,-354l1903 -1903zm-1532 -1532l-2946 -2946 -6420 6420 6420 6420 2808 -2808 -3191 -3191c-156,-156 -156,-409 0,-566l3329 -3329zm215 7439l-2985 2985c-98,98 -256,98 -354,0l-6773 -6773c-98,-98 -98,-256 0,-354l6773 -6773c98,-98 256,-98 354,0l6773 6773c98,98 98,256 0,354l-1903 1903 703 703 2733 -2780 -8484 -8484 -8480 8480 8480 8480 3838 -3838 -677 -677zm27383 -7503l966 -966 -13202 -13202 -13202 13202 966 966 12058 -12058c98,-98 256,-98 354,0l12058 12058zm1242 1949l-1588 1588 1727 1727 1588 -1588 -1727 -1727zm-215 3668l-1903 -1903c-98,-98 -98,-256 0,-354l6773 -6773c98,-98 256,-98 354,0l6773 6773c98,98 98,256 0,354l-6773 6773c-98,98 -256,98 -354,0l-2985 -2985 -677 677 3838 3838 8480 -8480 -8480 -8480 -8484 8484 2733 2780 703 -703zm-27029 -7150l13484 -13484c156,-156 409,-156 566,0l13484 13484 4259 -4259c156,-156 409,-156 566,0l9046 9046c156,156 156,409 0,566l-9046 9046c-156,156 -409,156 -566,0l-4121 -4121 -13623 13623c-156,156 -409,156 -566,0l-13623 -13623 -4121 4121c-156,156 -409,156 -566,0l-9046 -9046c-156,-156 -156,-409 0,-566l9046 -9046c156,-156 409,-156 566,0l4259 4259zm29130 1596l3329 3329c156,156 156,409 0,566l-3191 3191 2808 2808 6420 -6420 -6420 -6420 -2946 2946z"></path></g></svg>